<svg xmlns="http://www.w3.org/2000/svg" xmlns:xlink="http://www.w3.org/1999/xlink" xmlns:inkscape="http://www.inkscape.org/namespaces/inkscape" version="1.1" width="566.929" height="566.929" viewBox="0 0 566.929 566.929">
<defs>
<clipPath id="clip_1">
<path transform="matrix(1,0,0,-1,0,566.929)" d="M0 566.929H566.929V0H0Z"/>
</clipPath>
</defs>
<g clip-path="url(#clip_1)">
<path transform="matrix(1,0,0,-1,234.0629,368.50163)" d="M0 0C.616 .512 .924 1.236 .924 2.177 .924 3.134 .616 3.867 0 4.379-.616 4.89-1.516 5.145-2.699 5.145H-5.91V-.766H-2.699C-1.516-.766-.616-.511 0 0M1.448 7.601C2.558 7.099 3.413 6.385 4.014 5.461 4.614 4.536 4.914 3.442 4.914 2.177 4.914 .929 4.614-.162 4.014-1.094 3.413-2.027 2.558-2.74 1.448-3.234 .336-3.73-.973-3.976-2.481-3.976H-5.91V-8.671H-9.85V8.355H-2.481C-.973 8.355 .336 8.104 1.448 7.601" fill="#002e52"/>
<path transform="matrix(1,0,0,-1,256.9753,370.53193)" d="M0 0-2.7 6.518-5.4 0ZM1.24-2.992H-6.665L-8.172-6.64H-12.211L-4.622 10.385H-.73L6.883-6.64H2.748Z" fill="#002e52"/>
<path transform="matrix(1,0,0,-1,287.33,360.14674)" d="M0 0V-17.026H-3.235L-11.724-6.689V-17.026H-15.616V0H-12.356L-3.892-10.337V0Z" fill="#002e52"/>
<path transform="matrix(1,0,0,-1,0,566.929)" d="M297.447 206.782H301.387V189.756H297.447Z" fill="#002e52"/>
<path transform="matrix(1,0,0,-1,315.4457,363.3081)" d="M0 0V-4.5H7.881V-7.662H0V-13.864H-3.94V3.161H8.927V0Z" fill="#002e52"/>
<path transform="matrix(1,0,0,-1,0,566.929)" d="M333.129 206.782H337.069V189.756H333.129Z" fill="#002e52"/>
<path transform="matrix(1,0,0,-1,350.6289,376.3333)" d="M0 0C-1.403 .754-2.505 1.8-3.308 3.138-4.111 4.476-4.512 5.988-4.512 7.674-4.512 9.36-4.111 10.873-3.308 12.211-2.505 13.548-1.403 14.594 0 15.348 1.402 16.102 2.98 16.479 4.73 16.479 6.206 16.479 7.539 16.219 8.732 15.7 9.923 15.181 10.925 14.436 11.736 13.463L9.206 11.128C8.055 12.457 6.628 13.122 4.926 13.122 3.871 13.122 2.93 12.891 2.104 12.429 1.277 11.967 .632 11.322 .17 10.496-.292 9.669-.523 8.728-.523 7.674-.523 6.62-.292 5.68 .17 4.853 .632 4.026 1.277 3.381 2.104 2.919 2.93 2.456 3.871 2.225 4.926 2.225 6.628 2.225 8.055 2.898 9.206 4.245L11.736 1.91C10.925 .921 9.919 .166 8.719-.352 7.52-.871 6.182-1.131 4.706-1.131 2.971-1.131 1.402-.753 0 0" fill="#002e52"/>
<path transform="matrix(1,0,0,-1,380.7273,370.53193)" d="M0 0-2.7 6.518-5.399 0ZM1.24-2.992H-6.665L-8.172-6.64H-12.21L-4.622 10.385H-.73L6.883-6.64H2.749Z" fill="#002e52"/>
<path transform="matrix(1,0,0,-1,403.0067,373.937)" d="M0 0C1.702 0 3.061 .474 4.074 1.422 5.087 2.371 5.594 3.656 5.594 5.278 5.594 6.899 5.087 8.184 4.074 9.133 3.061 10.081 1.702 10.556 0 10.556H-3.6V0ZM-7.54 13.79H.194C2.043 13.79 3.677 13.438 5.096 12.733 6.514 12.027 7.617 11.034 8.404 9.753 9.189 8.472 9.583 6.98 9.583 5.278 9.583 3.575 9.189 2.083 8.404 .802 7.617-.478 6.514-1.472 5.096-2.177 3.677-2.883 2.043-3.235 .194-3.235H-7.54Z" fill="#002e52"/>
<path transform="matrix(1,0,0,-1,432.6069,373.4146)" d="M0 0C.81 .462 1.447 1.107 1.909 1.934 2.371 2.761 2.602 3.701 2.602 4.756 2.602 5.809 2.371 6.75 1.909 7.577 1.447 8.404 .81 9.048 0 9.51-.811 9.973-1.719 10.204-2.724 10.204-3.73 10.204-4.638 9.973-5.448 9.51-6.259 9.048-6.896 8.404-7.358 7.577-7.82 6.75-8.051 5.809-8.051 4.756-8.051 3.701-7.82 2.761-7.358 1.934-6.896 1.107-6.259 .462-5.448 0-4.638-.462-3.73-.693-2.724-.693-1.719-.693-.811-.462 0 0M-7.503-2.906C-8.922-2.144-10.033-1.094-10.836 .244-11.639 1.582-12.04 3.085-12.04 4.756-12.04 6.425-11.639 7.93-10.836 9.268-10.033 10.605-8.922 11.655-7.503 12.417-6.085 13.179-4.492 13.56-2.724 13.56-.957 13.56 .632 13.179 2.043 12.417 3.454 11.655 4.564 10.605 5.375 9.268 6.186 7.93 6.592 6.425 6.592 4.756 6.592 3.085 6.186 1.582 5.375 .244 4.564-1.094 3.454-2.144 2.043-2.906 .632-3.669-.957-4.05-2.724-4.05-4.492-4.05-6.085-3.669-7.503-2.906" fill="#002e52"/>
<path transform="matrix(1,0,0,-1,458.0972,364.1227)" d="M0 0C-.617 .511-1.517 .766-2.7 .766H-5.911V-5.169H-2.7C-1.517-5.169-.617-4.909 0-4.391 .616-3.872 .924-3.143 .924-2.202 .924-1.245 .616-.512 0 0M.997-13.049-2.287-8.306H-2.482-5.911V-13.049H-9.851V3.976H-2.482C-.973 3.976 .336 3.725 1.447 3.223 2.557 2.72 3.413 2.006 4.013 1.082 4.613 .157 4.913-.937 4.913-2.202 4.913-3.466 4.609-4.557 4-5.473 3.393-6.389 2.529-7.091 1.411-7.577L5.229-13.049Z" fill="#002e52"/>
<path transform="matrix(1,0,0,-1,482.1766,370.53193)" d="M0 0-2.7 6.518-5.399 0ZM1.24-2.992H-6.665L-8.172-6.64H-12.21L-4.622 10.385H-.73L6.883-6.64H2.749Z" fill="#002e52"/>
<path transform="matrix(1,0,0,-1,203.1355,243.39621)" d="M0 0C0-5.169 .822-10.574 2.585-15.04 4.348-7.166 15.861-3.406 16.097 9.4 16.213 15.979 15.04 21.855 10.456 21.855 3.876 21.855 0 11.28 0 0M31.137-7.638V-4.582H32.312V-7.638C32.312-27.377 20.445-37.129 8.459-37.129-8.225-37.129-16.685-22.559-16.685-7.872-16.685 7.402-7.638 23.029 10.456 23.029 21.031 23.029 30.549 18.565 30.549 8.931 30.549-7.05 3.524-4.7 3.524-17.154 6.227-22.324 10.339-25.85 16.213-25.85 23.617-25.966 31.137-19.034 31.137-7.638" fill="#002e52"/>
<path transform="matrix(1,0,0,-1,361.7641,261.2561)" d="M0 0V-6.462C0-9.823-1.564-11.739-3.356-12.229-4.11-15.052-5.967-17.429-8.448-18.885-3.241-17.627 1.174-13.491 1.174-6.462V0Z" fill="#002e52"/>
<path transform="matrix(1,0,0,-1,261.4191,266.0974)" d="M0 0V68.877L-23.147 61.123-22.677 60.066-19.741 61.123C-17.742 61.827-16.45 60.888-16.45 58.773V-9.023C-16.45-11.138-17.86-12.547-19.975-12.547H-23.147V-13.723H-11.147C-8.157-8.341-4.246-3.563 0 0" fill="#002e52"/>
<path transform="matrix(1,0,0,-1,261.4191,275.12043)" d="M0 0V2.422C-2.002 .337-3.886-2.064-5.548-4.7H6.697V-3.524H3.524C1.409-3.524 0-2.115 0 0" fill="#002e52"/>
<path transform="matrix(1,0,0,-1,298.4319,278.6447)" d="M0 0C-2.115 0-3.524 1.409-3.524 3.524V81.425L-26.671 73.671-26.201 72.613-23.265 73.671C-21.266 74.375-19.975 73.435-19.975 71.32V18.889C-14.785 17.926-10.969 13.477-10.969 7.966-10.969 4.161-12.932 .802-15.909-1.175H3.172V0Z" fill="#002e52"/>
<path transform="matrix(1,0,0,-1,322.1666,266.4254)" d="M0 0C0 10.222 8.225 18.564 8.225 29.492 8.225 35.484 4.348 42.768-2.349 42.768H-3.172C4.113 46.058 14.57 44.767 14.57 37.011V1.057C14.57-11.985 0-12.101 0 0M14.495-4.253C14.495 1.88 19.432 6.87 25.5 6.87 27.524 6.87 29.4 6.349 31.019 5.441V31.96C31.019 49.584-11.162 51.346-11.162 33.957-11.162 29.14-7.284 25.144-2.349 25.144 2.35 25.144 6.345 29.022 6.462 33.721 6.816 32.312 7.05 30.785 7.05 29.492 7.05 17.39-17.506 11.985-17.506-1.527-17.506-6.059-15.191-9.387-11.793-11.484-8.236-8.275-6.538-3.951-6.538 .212-6.538 1.229-5.715 2.052-4.698 2.052H-3.523C-2.507 2.052-1.684 1.229-1.684 .212V-14.119C5.013-14.099 11.862-11.071 14.527-4.878 14.515-4.67 14.495-4.464 14.495-4.253" fill="#002e52"/>
<path transform="matrix(1,0,0,-1,131.7582,231.30982)" d="M0 0H-5.935V40.173H0C11.564 40.173 17.347 30.129 17.347 20.085 17.347 10.044 11.564 0 0 0M16.738-.456C33.324 2.436 41.693 10.347 41.693 20.085 41.693 32.412 28.302 41.845 1.673 41.845H-37.432V40.173H-33.324C-30.585 40.173-28.76 38.346-28.76 35.607V-9.682C-22.248-6.329-14.837-4.586-6.718-4.586 9.822-4.586 28.066-15.912 27.532-32.75 27.479-34.401 27.339-36.248 27.231-37.918 26.608-47.544 17.748-62.822 7.978-62.692-.895-61.608-5.345-51.194-5.345-40.208-5.345-34.003-3.411-27.583-.299-23.321 3.664-17.893 10.855-16.463 10.855-16.463 8.461-15.466 5.966-14.898 3.613-14.898-7.022-14.898-15.399-20.691-21.037-29.27-24.289-35.12-23.691-39.462-23.691-39.462L-23.65-39.419C-23.658-39.683-23.691-39.945-23.691-40.208-23.691-52.297-15.404-64.381 7.814-64.511V-64.516C7.87-64.516 7.922-64.513 7.978-64.513 8.034-64.514 8.087-64.516 8.144-64.516V-64.511C15.131-64.48 21.092-63.629 26.149-62.154L25.753-61.264C25.543-60.791 25.542-60.25 25.751-59.776 25.96-59.301 26.359-58.937 26.85-58.772L41.038-54.02C47.397-48.02 50.062-40.142 50.062-32.258 50.062-17.802 41.084-3.347 16.738-.456" fill="#002e52"/>
<path transform="matrix(1,0,0,-1,220.684,342.12074)" d="M0 0V-1.175H-21.972L-23.029 8.929C-28.67-6.816-54.871-5.053-54.871 12.219V48.173C-54.871 50.288-56.281 51.228-58.278 50.524L-61.098 49.466-61.568 50.524-38.421 58.278V7.166C-38.421-3.878-23.147 .94-23.147 15.274V48.173C-23.147 50.288-24.556 51.228-26.553 50.524L-29.374 49.466-29.844 50.524-6.697 58.278V3.524C-6.697 1.409-5.287 0-3.172 0Z" fill="#9f3d03"/>
<path transform="matrix(1,0,0,-1,262.8691,292.65434)" d="M0 0-.47 1.057 22.677 8.811V-45.942C22.677-48.057 24.087-49.466 26.202-49.466H29.374V-50.642H-.47V-49.466H2.702C4.817-49.466 6.227-48.057 6.227-45.942V-1.293C6.227 .822 4.935 1.761 2.937 1.057ZM4.23 22.206C4.23 24.674 5.169 27.023 6.814 28.668-3.76 23.735-15.275 8.459-15.509-7.873V-45.942C-15.509-48.057-14.1-49.466-11.985-49.466H-8.813V-50.642H-38.656V-49.466H-35.484C-33.369-49.466-31.96-48.057-31.96-45.942V-1.293C-31.96 .822-33.251 1.761-35.25 1.057L-38.187 0-38.656 1.057-15.509 8.811V1.057C-11.398 17.624 2.702 31.489 13.395 31.489 18.564 31.489 22.677 27.377 22.677 22.206 22.677 17.154 18.564 13.041 13.395 13.041 8.342 13.041 4.23 17.154 4.23 22.206" fill="#9f3d03"/>
<path transform="matrix(1,0,0,-1,317.3914,265.983)" d="M0 0H1.175V-18.564H11.75V-19.739H1.175V-63.801C1.175-74.023 13.277-74.023 13.277-63.801V-62.743H14.452V-63.801C14.452-83.188-15.275-83.188-15.275-63.801V-19.739H-22.09V-18.564C-10.34-18.564 0-11.75 0 0" fill="#9f3d03"/>
<path transform="matrix(1,0,0,-1,338.425,270.4483)" d="M0 0C0 5.171 4.112 9.283 9.165 9.283 14.334 9.283 18.448 5.171 18.448 0 18.448-5.051 14.334-9.165 9.165-9.165 4.112-9.165 0-5.051 0 0M-4.23-22.206-4.699-21.149 18.448-13.395V-68.148C18.448-70.263 19.857-71.672 21.972-71.672H25.144V-72.848H-4.699V-71.672H-1.527C.588-71.672 1.997-70.263 1.997-68.148V-23.499C1.997-21.384 .705-20.445-1.293-21.149Z" fill="#9f3d03"/>
<path transform="matrix(1,0,0,-1,390.4775,326.84693)" d="M0 0C0-7.402 4.113-13.041 8.461-13.041 15.393-13.041 18.799-1.174 18.799 12.925 18.799 28.2 15.393 38.892 8.461 38.892 4.113 38.892 0 33.251 0 25.85ZM-19.973-15.274C-17.858-15.274-16.449-13.864-16.449-11.75V55.695C-16.449 57.809-17.742 58.749-19.739 58.044L-22.676 56.986-23.029 58.044 0 65.799V32.43C2.468 39.128 8.695 43.004 15.275 43.004 29.375 43.004 36.425 30.315 36.425 12.925 36.425-3.289 29.375-17.154 15.275-17.154 8.577-17.154 2.233-13.159-.116-6.109L-1.174-16.449H-23.146V-15.274Z" fill="#9f3d03"/>
<path transform="matrix(1,0,0,-1,462.8582,292.88993)" d="M0 0C0 7.755-10.456 9.047-17.742 5.757H-16.919C-10.222 5.757-6.345-1.527-6.345-7.52-6.345-18.448-14.57-26.789-14.57-37.011-14.57-49.113 0-48.997 0-35.954ZM-25.732-3.054C-25.732 14.334 16.449 12.573 16.449-5.052V-38.304C16.449-46.176 25.026-46.176 25.026-38.304V-31.842H26.202V-38.304C26.202-54.402 3.054-55.341 .236-41.241-5.053-55.575-32.076-54.048-32.076-38.539-32.076-25.026-7.52-19.621-7.52-7.52-7.52-6.227-7.754-4.7-8.107-3.29-8.225-7.99-12.219-11.867-16.919-11.867-21.854-11.867-25.732-7.872-25.732-3.054" fill="#9f3d03"/>
<path transform="matrix(1,0,0,-1,160.1079,303.90293)" d="M0 0C-1.807-15.796-14.228-24.902-27.307-24.902-42.981-24.902-59.414-11.816-59.414 18.16-59.414 39.92-47.242 61.831-26.546 61.831-21.331 61.831-15.416 59.09-11.478 54.895-6.479 50.362-3.278 44.391-3.278 37.591-3.278 37.029-3.332 36.474-3.41 35.923-2.929 37.244-2.658 38.645-2.658 40.073-2.658 55.289-18.635 66.397-35.068 66.397-66.566 66.397-82.238 39.615-82.238 12.683-82.238-14.708-66.109-42.248-34.307-42.248-16.556-42.248 .35-28.6 1.796 0Z" fill="#9f3d03"/>
</g>
</svg>
